<svg width="125" height="20" viewBox="0 0 125 20" fill="none" xmlns="http://www.w3.org/2000/svg">
<path d="M3.996 13.12C2.62 13.12 1.432 12.672 0.432 11.776L1.524 10.468C2.348 11.148 3.184 11.488 4.032 11.488C4.408 11.488 4.704 11.416 4.92 11.272C5.136 11.128 5.244 10.928 5.244 10.672C5.244 10.432 5.132 10.24 4.908 10.096C4.684 9.944 4.232 9.78 3.552 9.604C3.072 9.484 2.684 9.368 2.388 9.256C2.092 9.136 1.808 8.98 1.536 8.788C1.272 8.596 1.076 8.356 0.948 8.068C0.828 7.772 0.768 7.42 0.768 7.012C0.768 6.252 1.04 5.64 1.584 5.176C2.136 4.712 2.844 4.48 3.708 4.48C4.9 4.48 5.94 4.836 6.828 5.548L5.868 6.94C5.076 6.388 4.348 6.112 3.684 6.112C3.34 6.112 3.072 6.184 2.88 6.328C2.696 6.464 2.604 6.644 2.604 6.868C2.604 7.14 2.72 7.344 2.952 7.48C3.184 7.616 3.672 7.78 4.416 7.972C5.328 8.212 6 8.52 6.432 8.896C6.864 9.272 7.08 9.812 7.08 10.516C7.08 11.332 6.796 11.972 6.228 12.436C5.668 12.892 4.924 13.12 3.996 13.12ZM8.68378 13V4.6H10.5318V7.924H13.9398V4.6H15.7878V13H13.9398V9.628H10.5318V13H8.68378ZM25.073 11.884C24.225 12.724 23.161 13.144 21.881 13.144C20.601 13.144 19.537 12.724 18.689 11.884C17.849 11.044 17.429 10.016 17.429 8.8C17.429 7.592 17.853 6.568 18.701 5.728C19.557 4.88 20.625 4.456 21.905 4.456C23.185 4.456 24.245 4.876 25.085 5.716C25.933 6.556 26.357 7.584 26.357 8.8C26.357 10.008 25.929 11.036 25.073 11.884ZM20.081 10.672C20.561 11.184 21.169 11.44 21.905 11.44C22.641 11.44 23.245 11.188 23.717 10.684C24.189 10.172 24.425 9.544 24.425 8.8C24.425 8.064 24.185 7.44 23.705 6.928C23.225 6.416 22.617 6.16 21.881 6.16C21.145 6.16 20.541 6.416 20.069 6.928C19.597 7.432 19.361 8.056 19.361 8.8C19.361 9.536 19.601 10.16 20.081 10.672ZM27.9963 13V4.6H31.4283C32.4203 4.6 33.2043 4.868 33.7803 5.404C34.3563 5.94 34.6443 6.648 34.6443 7.528C34.6443 8.464 34.3243 9.192 33.6843 9.712C33.0443 10.224 32.2323 10.48 31.2483 10.48H29.8443V13H27.9963ZM29.8443 8.836H31.3083C31.7643 8.836 32.1203 8.716 32.3763 8.476C32.6403 8.236 32.7723 7.924 32.7723 7.54C32.7723 7.132 32.6403 6.82 32.3763 6.604C32.1123 6.38 31.7443 6.268 31.2723 6.268H29.8443V8.836ZM39.6096 13V4.6H41.3136L45.2496 9.772V4.6H47.0736V13H45.5016L41.4336 7.66V13H39.6096ZM56.362 11.884C55.514 12.724 54.45 13.144 53.17 13.144C51.89 13.144 50.826 12.724 49.978 11.884C49.138 11.044 48.718 10.016 48.718 8.8C48.718 7.592 49.142 6.568 49.99 5.728C50.846 4.88 51.914 4.456 53.194 4.456C54.474 4.456 55.534 4.876 56.374 5.716C57.222 6.556 57.646 7.584 57.646 8.8C57.646 10.008 57.218 11.036 56.362 11.884ZM51.37 10.672C51.85 11.184 52.458 11.44 53.194 11.44C53.93 11.44 54.534 11.188 55.006 10.684C55.478 10.172 55.714 9.544 55.714 8.8C55.714 8.064 55.474 7.44 54.994 6.928C54.514 6.416 53.906 6.16 53.17 6.16C52.434 6.16 51.83 6.416 51.358 6.928C50.886 7.432 50.65 8.056 50.65 8.8C50.65 9.536 50.89 10.16 51.37 10.672ZM61.0249 13.06L58.1569 4.6H60.1369L61.8769 10.288L63.7609 4.576H65.3449L67.2289 10.288L68.9689 4.6H70.9009L68.0329 13.06H66.4249L64.5289 7.564L62.6329 13.06H61.0249Z" fill="white"/>
<path d="M124.435 10.4243C124.67 10.1899 124.67 9.81005 124.435 9.57574L120.617 5.75736C120.383 5.52304 120.003 5.52304 119.768 5.75736C119.534 5.99167 119.534 6.37157 119.768 6.60589L123.162 10L119.768 13.3941C119.534 13.6284 119.534 14.0083 119.768 14.2426C120.003 14.477 120.383 14.477 120.617 14.2426L124.435 10.4243ZM78.5 10.6H124.011V9.4H78.5V10.6Z" fill="white"/>
</svg>
