<svg width="11" height="20" viewBox="0 0 11 20" fill="none" xmlns="http://www.w3.org/2000/svg">
<path d="M9.8537 0.00480415L7.50681 0.000732422C4.87015 0.000732422 3.16623 1.89103 3.16623 4.81677V7.03729H0.806527C0.602621 7.03729 0.4375 7.21604 0.4375 7.43652V10.6538C0.4375 10.8743 0.602809 11.0528 0.806527 11.0528H3.16623V19.171C3.16623 19.3915 3.33135 19.5701 3.53525 19.5701H6.61399C6.81789 19.5701 6.98302 19.3913 6.98302 19.171V11.0528H9.74205C9.94596 11.0528 10.1111 10.8743 10.1111 10.6538L10.1122 7.43652C10.1122 7.33065 10.0732 7.22927 10.0041 7.15435C9.93504 7.07943 9.8409 7.03729 9.743 7.03729H6.98302V5.15493C6.98302 4.25019 7.1824 3.7909 8.27235 3.7909L9.85333 3.79029C10.057 3.79029 10.2222 3.61154 10.2222 3.39126V0.403833C10.2222 0.183757 10.0572 0.00521132 9.8537 0.00480415Z" fill="white"/>
</svg>
