<svg width="123" height="13" viewBox="0 0 123 13" fill="none" xmlns="http://www.w3.org/2000/svg">
<path d="M4.5751 9.85764C3.1991 9.85764 2.0111 9.40964 1.0111 8.51364L2.1031 7.20564C2.9271 7.88564 3.7631 8.22564 4.6111 8.22564C4.9871 8.22564 5.2831 8.15364 5.4991 8.00964C5.7151 7.86564 5.8231 7.66564 5.8231 7.40964C5.8231 7.16964 5.7111 6.97764 5.4871 6.83364C5.2631 6.68164 4.8111 6.51764 4.1311 6.34164C3.6511 6.22164 3.2631 6.10564 2.9671 5.99364C2.6711 5.87364 2.3871 5.71764 2.1151 5.52564C1.8511 5.33364 1.6551 5.09364 1.5271 4.80564C1.4071 4.50964 1.3471 4.15764 1.3471 3.74964C1.3471 2.98964 1.6191 2.37764 2.1631 1.91364C2.7151 1.44964 3.4231 1.21764 4.2871 1.21764C5.4791 1.21764 6.5191 1.57364 7.4071 2.28564L6.4471 3.67764C5.6551 3.12564 4.9271 2.84964 4.2631 2.84964C3.9191 2.84964 3.6511 2.92164 3.4591 3.06564C3.2751 3.20164 3.1831 3.38164 3.1831 3.60564C3.1831 3.87764 3.2991 4.08164 3.5311 4.21764C3.7631 4.35364 4.2511 4.51764 4.9951 4.70964C5.9071 4.94964 6.5791 5.25764 7.0111 5.63364C7.4431 6.00964 7.6591 6.54964 7.6591 7.25364C7.6591 8.06964 7.3751 8.70964 6.8071 9.17364C6.2471 9.62964 5.5031 9.85764 4.5751 9.85764ZM9.26288 9.73764V1.33764H11.1109V4.66164H14.5189V1.33764H16.3669V9.73764H14.5189V6.36564H11.1109V9.73764H9.26288ZM25.6521 8.62164C24.8041 9.46164 23.7401 9.88164 22.4601 9.88164C21.1801 9.88164 20.1161 9.46164 19.2681 8.62164C18.4281 7.78164 18.0081 6.75364 18.0081 5.53764C18.0081 4.32964 18.4321 3.30564 19.2801 2.46564C20.1361 1.61764 21.2041 1.19364 22.4841 1.19364C23.7641 1.19364 24.8241 1.61364 25.6641 2.45364C26.5121 3.29364 26.9361 4.32164 26.9361 5.53764C26.9361 6.74564 26.5081 7.77364 25.6521 8.62164ZM20.6601 7.40964C21.1401 7.92164 21.7481 8.17764 22.4841 8.17764C23.2201 8.17764 23.8241 7.92564 24.2961 7.42164C24.7681 6.90964 25.0041 6.28164 25.0041 5.53764C25.0041 4.80164 24.7641 4.17764 24.2841 3.66564C23.8041 3.15364 23.1961 2.89764 22.4601 2.89764C21.7241 2.89764 21.1201 3.15364 20.6481 3.66564C20.1761 4.16964 19.9401 4.79364 19.9401 5.53764C19.9401 6.27364 20.1801 6.89764 20.6601 7.40964ZM28.5754 9.73764V1.33764H32.0074C32.9994 1.33764 33.7834 1.60564 34.3594 2.14164C34.9354 2.67764 35.2234 3.38564 35.2234 4.26564C35.2234 5.20164 34.9034 5.92964 34.2634 6.44964C33.6234 6.96164 32.8114 7.21764 31.8274 7.21764H30.4234V9.73764H28.5754ZM30.4234 5.57364H31.8874C32.3434 5.57364 32.6994 5.45364 32.9554 5.21364C33.2194 4.97364 33.3514 4.66164 33.3514 4.27764C33.3514 3.86964 33.2194 3.55764 32.9554 3.34164C32.6914 3.11764 32.3234 3.00564 31.8514 3.00564H30.4234V5.57364ZM40.1887 9.73764V1.33764H41.8927L45.8287 6.50964V1.33764H47.6527V9.73764H46.0807L42.0127 4.39764V9.73764H40.1887ZM56.9411 8.62164C56.0931 9.46164 55.0291 9.88164 53.7491 9.88164C52.4691 9.88164 51.4051 9.46164 50.5571 8.62164C49.7171 7.78164 49.2971 6.75364 49.2971 5.53764C49.2971 4.32964 49.7211 3.30564 50.5691 2.46564C51.4251 1.61764 52.4931 1.19364 53.7731 1.19364C55.0531 1.19364 56.1131 1.61364 56.9531 2.45364C57.8011 3.29364 58.2251 4.32164 58.2251 5.53764C58.2251 6.74564 57.7971 7.77364 56.9411 8.62164ZM51.9491 7.40964C52.4291 7.92164 53.0371 8.17764 53.7731 8.17764C54.5091 8.17764 55.1131 7.92564 55.5851 7.42164C56.0571 6.90964 56.2931 6.28164 56.2931 5.53764C56.2931 4.80164 56.0531 4.17764 55.5731 3.66564C55.0931 3.15364 54.4851 2.89764 53.7491 2.89764C53.0131 2.89764 52.4091 3.15364 51.9371 3.66564C51.4651 4.16964 51.2291 4.79364 51.2291 5.53764C51.2291 6.27364 51.4691 6.89764 51.9491 7.40964ZM61.604 9.79764L58.736 1.33764H60.716L62.456 7.02564L64.34 1.31364H65.924L67.808 7.02564L69.548 1.33764H71.48L68.612 9.79764H67.004L65.108 4.30164L63.212 9.79764H61.604Z" fill="white"/>
<path d="M122.047 6.21656C122.242 6.0213 122.242 5.70472 122.047 5.50945L118.865 2.32747C118.67 2.13221 118.353 2.13221 118.158 2.32747C117.963 2.52273 117.963 2.83932 118.158 3.03458L120.986 5.86301L118.158 8.69143C117.963 8.8867 117.963 9.20328 118.158 9.39854C118.353 9.5938 118.67 9.5938 118.865 9.39854L122.047 6.21656ZM78.8656 6.36301H121.693V5.36301H78.8656V6.36301Z" fill="white"/>
</svg>
