<svg width="23" height="23" viewBox="0 0 23 23" fill="none" xmlns="http://www.w3.org/2000/svg">
<path d="M15.5273 22.0155H7.27144C3.47239 22.0155 0.391602 18.9347 0.391602 15.1357V6.87984C0.391602 3.08079 3.47239 0 7.27144 0H15.5273C19.3263 0 22.4071 3.08079 22.4071 6.87984V15.1357C22.4071 18.9347 19.3263 22.0155 15.5273 22.0155ZM20.3431 6.87984C20.3431 4.22422 18.1829 2.06395 15.5273 2.06395H7.27144C4.61582 2.06395 2.45555 4.22422 2.45555 6.87984V15.1357C2.45555 17.7913 4.61582 19.9515 7.27144 19.9515H15.5273C18.1829 19.9515 20.3431 17.7913 20.3431 15.1357V6.87984Z" fill="white"/>
<path d="M11.3993 16.5116C8.35983 16.5116 5.89548 14.0473 5.89548 11.0077C5.89548 7.96823 8.35983 5.50387 11.3993 5.50387C14.4389 5.50387 16.9032 7.96823 16.9032 11.0077C16.9032 14.0473 14.4389 16.5116 11.3993 16.5116ZM11.3993 7.56783C9.50326 7.56783 7.95943 9.11166 7.95943 11.0077C7.95943 12.9052 9.50326 14.4477 11.3993 14.4477C13.2954 14.4477 14.8393 12.9052 14.8393 11.0077C14.8393 9.11166 13.2954 7.56783 11.3993 7.56783Z" fill="white"/>
<path d="M17.316 16.1909C17.721 16.1909 18.0494 16.5192 18.0494 16.9243C18.0494 17.3293 17.721 17.6577 17.316 17.6577C16.9109 17.6577 16.5826 17.3293 16.5826 16.9243C16.5826 16.5192 16.9109 16.1909 17.316 16.1909Z" fill="white"/>
</svg>
