<svg width="170" height="12" viewBox="0 0 170 12" fill="none" xmlns="http://www.w3.org/2000/svg">
<path d="M1.008 9.06738V0.667382H2.856V7.38738H7.044V9.06738H1.008ZM8.43769 9.06738V0.667382H14.7737V2.31138H10.2737V4.01538H14.2337V5.65938H10.2737V7.42338H14.8337V9.06738H8.43769ZM15.7568 9.06738L19.3568 0.607382H21.0608L24.6608 9.06738H22.7288L21.9608 7.18338H18.4088L17.6408 9.06738H15.7568ZM19.0688 5.55138H21.3008L20.1848 2.82738L19.0688 5.55138ZM25.9572 9.06738V0.667382H29.7972C30.8612 0.667382 31.6772 0.951382 32.2452 1.51938C32.7252 1.99938 32.9652 2.64738 32.9652 3.46338C32.9652 4.75138 32.3652 5.61938 31.1652 6.06738L33.2172 9.06738H31.0572L29.2332 6.37938H27.8052V9.06738H25.9572ZM27.8052 4.74738H29.6772C30.1252 4.74738 30.4732 4.63938 30.7212 4.42338C30.9692 4.19938 31.0932 3.90338 31.0932 3.53538C31.0932 3.14338 30.9652 2.84738 30.7092 2.64738C30.4532 2.43938 30.0972 2.33538 29.6412 2.33538H27.8052V4.74738ZM34.6291 9.06738V0.667382H36.3331L40.2691 5.83938V0.667382H42.0931V9.06738H40.5211L36.4531 3.72738V9.06738H34.6291ZM47.7072 9.06738V0.667382H49.6992L51.9072 4.21938L54.1152 0.667382H56.1072V9.06738H54.2712V3.58338L51.9072 7.17138H51.8592L49.5192 3.61938V9.06738H47.7072ZM65.3972 7.95138C64.5492 8.79138 63.4852 9.21138 62.2052 9.21138C60.9252 9.21138 59.8612 8.79138 59.0132 7.95138C58.1732 7.11138 57.7532 6.08338 57.7532 4.86738C57.7532 3.65938 58.1772 2.63538 59.0252 1.79538C59.8812 0.947383 60.9492 0.523383 62.2292 0.523383C63.5092 0.523383 64.5692 0.943383 65.4092 1.78338C66.2572 2.62338 66.6812 3.65138 66.6812 4.86738C66.6812 6.07538 66.2532 7.10338 65.3972 7.95138ZM60.4052 6.73938C60.8852 7.25138 61.4932 7.50738 62.2292 7.50738C62.9652 7.50738 63.5692 7.25538 64.0412 6.75138C64.5132 6.23938 64.7492 5.61138 64.7492 4.86738C64.7492 4.13138 64.5092 3.50738 64.0292 2.99538C63.5492 2.48338 62.9412 2.22738 62.2052 2.22738C61.4692 2.22738 60.8652 2.48338 60.3932 2.99538C59.9212 3.49938 59.6852 4.12338 59.6852 4.86738C59.6852 5.60338 59.9252 6.22738 60.4052 6.73938ZM68.3205 9.06738V0.667382H72.1605C73.2245 0.667382 74.0405 0.951382 74.6085 1.51938C75.0885 1.99938 75.3285 2.64738 75.3285 3.46338C75.3285 4.75138 74.7285 5.61938 73.5285 6.06738L75.5805 9.06738H73.4205L71.5965 6.37938H70.1685V9.06738H68.3205ZM70.1685 4.74738H72.0405C72.4885 4.74738 72.8365 4.63938 73.0845 4.42338C73.3325 4.19938 73.4565 3.90338 73.4565 3.53538C73.4565 3.14338 73.3285 2.84738 73.0725 2.64738C72.8165 2.43938 72.4605 2.33538 72.0045 2.33538H70.1685V4.74738ZM76.9924 9.06738V0.667382H83.3284V2.31138H78.8284V4.01538H82.7884V5.65938H78.8284V7.42338H83.3884V9.06738H76.9924Z" fill="white"/>
<path d="M137.74 5.36958C137.974 5.13526 137.974 4.75536 137.74 4.52105L133.921 0.702672C133.687 0.468357 133.307 0.468357 133.073 0.702672C132.839 0.936986 132.839 1.31689 133.073 1.5512L136.467 4.94531L133.073 8.33943C132.839 8.57374 132.839 8.95364 133.073 9.18795C133.307 9.42227 133.687 9.42227 133.921 9.18795L137.74 5.36958ZM98 5.54531H137.316V4.34531H98V5.54531Z" fill="white"/>
</svg>
