<svg width="83" height="10" viewBox="0 0 83 10" fill="none" xmlns="http://www.w3.org/2000/svg">
<path d="M0.00800008 8.99182V0.591821H1.856V7.31182H6.044V8.99182H0.00800008ZM7.43769 8.99182V0.591821H13.7737V2.23582H9.27369V3.93982H13.2337V5.58382H9.27369V7.34782H13.8337V8.99182H7.43769ZM14.7568 8.99182L18.3568 0.531821H20.0608L23.6608 8.99182H21.7288L20.9608 7.10782H17.4088L16.6408 8.99182H14.7568ZM18.0688 5.47582H20.3008L19.1848 2.75182L18.0688 5.47582ZM24.9572 8.99182V0.591821H28.7972C29.8612 0.591821 30.6772 0.875821 31.2452 1.44382C31.7252 1.92382 31.9652 2.57182 31.9652 3.38782C31.9652 4.67582 31.3652 5.54382 30.1652 5.99182L32.2172 8.99182H30.0572L28.2332 6.30382H26.8052V8.99182H24.9572ZM26.8052 4.67182H28.6772C29.1252 4.67182 29.4732 4.56382 29.7212 4.34782C29.9692 4.12382 30.0932 3.82782 30.0932 3.45982C30.0932 3.06782 29.9652 2.77182 29.7092 2.57182C29.4532 2.36382 29.0972 2.25982 28.6412 2.25982H26.8052V4.67182ZM33.6291 8.99182V0.591821H35.3331L39.2691 5.76382V0.591821H41.0931V8.99182H39.5211L35.4531 3.65182V8.99182H33.6291ZM46.7072 8.99182V0.591821H48.6992L50.9072 4.14382L53.1152 0.591821H55.1072V8.99182H53.2712V3.50782L50.9072 7.09582H50.8592L48.5192 3.54382V8.99182H46.7072ZM64.3972 7.87582C63.5492 8.71582 62.4852 9.13582 61.2052 9.13582C59.9252 9.13582 58.8612 8.71582 58.0132 7.87582C57.1732 7.03582 56.7532 6.00782 56.7532 4.79182C56.7532 3.58382 57.1772 2.55982 58.0252 1.71982C58.8812 0.871821 59.9492 0.447821 61.2292 0.447821C62.5092 0.447821 63.5692 0.867821 64.4092 1.70782C65.2572 2.54782 65.6812 3.57582 65.6812 4.79182C65.6812 5.99982 65.2532 7.02782 64.3972 7.87582ZM59.4052 6.66382C59.8852 7.17582 60.4932 7.43182 61.2292 7.43182C61.9652 7.43182 62.5692 7.17982 63.0412 6.67582C63.5132 6.16382 63.7492 5.53582 63.7492 4.79182C63.7492 4.05582 63.5092 3.43182 63.0292 2.91982C62.5492 2.40782 61.9412 2.15182 61.2052 2.15182C60.4692 2.15182 59.8652 2.40782 59.3932 2.91982C58.9212 3.42382 58.6852 4.04782 58.6852 4.79182C58.6852 5.52782 58.9252 6.15182 59.4052 6.66382ZM67.3205 8.99182V0.591821H71.1605C72.2245 0.591821 73.0405 0.875821 73.6085 1.44382C74.0885 1.92382 74.3285 2.57182 74.3285 3.38782C74.3285 4.67582 73.7285 5.54382 72.5285 5.99182L74.5805 8.99182H72.4205L70.5965 6.30382H69.1685V8.99182H67.3205ZM69.1685 4.67182H71.0405C71.4885 4.67182 71.8365 4.56382 72.0845 4.34782C72.3325 4.12382 72.4565 3.82782 72.4565 3.45982C72.4565 3.06782 72.3285 2.77182 72.0725 2.57182C71.8165 2.36382 71.4605 2.25982 71.0045 2.25982H69.1685V4.67182ZM75.9924 8.99182V0.591821H82.3284V2.23582H77.8284V3.93982H81.7884V5.58382H77.8284V7.34782H82.3884V8.99182H75.9924Z" fill="black"/>
</svg>
