<svg width="201" height="17" viewBox="0 0 201 17" fill="none" xmlns="http://www.w3.org/2000/svg">
<path d="M1.68 14.9668V0.966796H4.76V12.1668H11.74V14.9668H1.68ZM14.0628 14.9668V0.966796H24.6228V3.7068H17.1228V6.5468H23.7228V9.2868H17.1228V12.2268H24.7228V14.9668H14.0628ZM26.2613 14.9668L32.2613 0.866796H35.1013L41.1013 14.9668H37.8813L36.6013 11.8268H30.6813L29.4013 14.9668H26.2613ZM31.7813 9.1068H35.5013L33.6413 4.5668L31.7813 9.1068ZM43.262 14.9668V0.966796H49.662C51.4354 0.966796 52.7954 1.44013 53.742 2.3868C54.542 3.1868 54.942 4.2668 54.942 5.6268C54.942 7.77346 53.942 9.22013 51.942 9.9668L55.362 14.9668H51.762L48.722 10.4868H46.342V14.9668H43.262ZM46.342 7.7668H49.462C50.2087 7.7668 50.7887 7.5868 51.202 7.2268C51.6154 6.85346 51.822 6.36013 51.822 5.7468C51.822 5.09346 51.6087 4.60013 51.182 4.2668C50.7554 3.92013 50.162 3.7468 49.402 3.7468H46.342V7.7668ZM57.7152 14.9668V0.966796H60.5552L67.1152 9.5868V0.966796H70.1552V14.9668H67.5352L60.7552 6.0668V14.9668H57.7152ZM79.512 14.9668V0.966796H82.832L86.512 6.8868L90.192 0.966796H93.512V14.9668H90.452V5.8268L86.512 11.8068H86.432L82.532 5.8868V14.9668H79.512ZM108.995 13.1068C107.582 14.5068 105.809 15.2068 103.675 15.2068C101.542 15.2068 99.7686 14.5068 98.3553 13.1068C96.9553 11.7068 96.2553 9.99346 96.2553 7.9668C96.2553 5.95346 96.962 4.2468 98.3753 2.8468C99.802 1.43346 101.582 0.726797 103.715 0.726797C105.849 0.726797 107.615 1.4268 109.015 2.8268C110.429 4.2268 111.135 5.94013 111.135 7.9668C111.135 9.98013 110.422 11.6935 108.995 13.1068ZM100.675 11.0868C101.475 11.9401 102.489 12.3668 103.715 12.3668C104.942 12.3668 105.949 11.9468 106.735 11.1068C107.522 10.2535 107.915 9.2068 107.915 7.9668C107.915 6.74013 107.515 5.70013 106.715 4.8468C105.915 3.99346 104.902 3.5668 103.675 3.5668C102.449 3.5668 101.442 3.99346 100.655 4.8468C99.8686 5.6868 99.4753 6.7268 99.4753 7.9668C99.4753 9.19346 99.8753 10.2335 100.675 11.0868ZM113.868 14.9668V0.966796H120.268C122.041 0.966796 123.401 1.44013 124.348 2.3868C125.148 3.1868 125.548 4.2668 125.548 5.6268C125.548 7.77346 124.548 9.22013 122.548 9.9668L125.968 14.9668H122.368L119.328 10.4868H116.948V14.9668H113.868ZM116.948 7.7668H120.068C120.814 7.7668 121.394 7.5868 121.808 7.2268C122.221 6.85346 122.428 6.36013 122.428 5.7468C122.428 5.09346 122.214 4.60013 121.788 4.2668C121.361 3.92013 120.768 3.7468 120.008 3.7468H116.948V7.7668ZM128.321 14.9668V0.966796H138.881V3.7068H131.381V6.5468H137.981V9.2868H131.381V12.2268H138.981V14.9668H128.321Z" fill="white"/>
<path d="M200.707 9.44392C201.098 9.0534 201.098 8.42023 200.707 8.02971L194.343 1.66575C193.953 1.27522 193.319 1.27522 192.929 1.66575C192.538 2.05627 192.538 2.68944 192.929 3.07996L198.586 8.73682L192.929 14.3937C192.538 14.7842 192.538 15.4174 192.929 15.8079C193.319 16.1984 193.953 16.1984 194.343 15.8079L200.707 9.44392ZM153.494 9.73682H200V7.73682H153.494V9.73682Z" fill="white"/>
</svg>
