<svg width="122" height="13" fill="none" xmlns="http://www.w3.org/2000/svg"><path d="M1.008 9.992v-8.4h1.848v6.72h4.188v1.68H1.008zm7.43 0v-8.4h6.336v1.644h-4.5V4.94h3.96v1.644h-3.96v1.764h4.56v1.644H8.438zm7.319 0l3.6-8.46h1.704l3.6 8.46h-1.932l-.768-1.884h-3.552l-.768 1.884h-1.884zm3.312-3.516H21.3l-1.116-2.724-1.116 2.724zm6.888 3.516v-8.4h3.84c1.064 0 1.88.284 2.448.852.48.48.72 1.128.72 1.944 0 1.288-.6 2.156-1.8 2.604l2.052 3h-2.16l-1.824-2.688h-1.428v2.688h-1.848zm1.848-4.32h1.872c.448 0 .796-.108 1.044-.324.248-.224.372-.52.372-.888 0-.392-.128-.688-.384-.888-.256-.208-.612-.312-1.068-.312h-1.836v2.412zm6.824 4.32v-8.4h1.704l3.936 5.172V1.592h1.824v8.4h-1.572l-4.068-5.34v5.34H34.63zm13.078 0v-8.4H49.7l2.208 3.552 2.208-3.552h1.992v8.4h-1.836V4.508l-2.364 3.588h-.048l-2.34-3.552v5.448h-1.812zm17.69-1.116c-.848.84-1.912 1.26-3.192 1.26-1.28 0-2.344-.42-3.192-1.26-.84-.84-1.26-1.868-1.26-3.084 0-1.208.424-2.232 1.272-3.072.856-.848 1.924-1.272 3.204-1.272 1.28 0 2.34.42 3.18 1.26.848.84 1.272 1.868 1.272 3.084 0 1.208-.428 2.236-1.284 3.084zm-4.992-1.212c.48.512 1.088.768 1.824.768s1.34-.252 1.812-.756c.472-.512.708-1.14.708-1.884 0-.736-.24-1.36-.72-1.872s-1.088-.768-1.824-.768-1.34.256-1.812.768c-.472.504-.708 1.128-.708 1.872 0 .736.24 1.36.72 1.872zm7.915 2.328v-8.4h3.84c1.065 0 1.88.284 2.449.852.48.48.72 1.128.72 1.944 0 1.288-.6 2.156-1.8 2.604l2.052 3h-2.16l-1.825-2.688h-1.428v2.688H68.32zm1.849-4.32h1.871c.448 0 .796-.108 1.044-.324.248-.224.373-.52.373-.888 0-.392-.128-.688-.384-.888-.256-.208-.612-.312-1.069-.312h-1.836v2.412zm6.823 4.32v-8.4h6.336v1.644h-4.5V4.94h3.96v1.644h-3.96v1.764h4.56v1.644h-6.396zM121.321 6.478a.5.5 0 000-.707l-3.182-3.182a.5.5 0 10-.707.707l2.828 2.828-2.828 2.829a.5.5 0 00.707.707l3.182-3.182zm-28.482.146h28.128v-1H92.839v1z" fill="#000"/></svg>