<svg width="138" height="13" fill="none" xmlns="http://www.w3.org/2000/svg"><path d="M1.008 9.13V.73h1.848v6.72h4.188v1.68H1.008zm7.43 0V.73h6.336v1.644h-4.5v1.704h3.96v1.644h-3.96v1.764h4.56V9.13H8.438zm7.319 0l3.6-8.46h1.704l3.6 8.46h-1.932l-.768-1.884h-3.552L17.64 9.13h-1.884zm3.312-3.516H21.3L20.185 2.89l-1.116 2.724zm6.888 3.516V.73h3.84c1.064 0 1.88.284 2.448.852.48.48.72 1.128.72 1.944 0 1.288-.6 2.156-1.8 2.604l2.052 3h-2.16l-1.824-2.688h-1.428V9.13h-1.848zm1.848-4.32h1.872c.448 0 .796-.108 1.044-.324.248-.224.372-.52.372-.888 0-.392-.128-.688-.384-.888-.256-.208-.612-.312-1.068-.312h-1.836V4.81zm6.824 4.32V.73h1.704l3.936 5.172V.73h1.824v8.4h-1.572l-4.068-5.34v5.34H34.63zm13.078 0V.73H49.7l2.208 3.552L54.115.73h1.992v8.4h-1.836V3.646l-2.364 3.588h-.048l-2.34-3.552V9.13h-1.812zm17.69-1.116c-.848.84-1.912 1.26-3.192 1.26-1.28 0-2.344-.42-3.192-1.26-.84-.84-1.26-1.868-1.26-3.084 0-1.208.424-2.232 1.272-3.072C59.881 1.01 60.95.586 62.23.586c1.28 0 2.34.42 3.18 1.26.848.84 1.272 1.868 1.272 3.084 0 1.208-.428 2.236-1.284 3.084zm-4.992-1.212c.48.512 1.088.768 1.824.768s1.34-.252 1.812-.756c.472-.512.708-1.14.708-1.884 0-.736-.24-1.36-.72-1.872s-1.088-.768-1.824-.768-1.34.256-1.812.768c-.472.504-.708 1.128-.708 1.872 0 .736.24 1.36.72 1.872zM68.32 9.13V.73h3.84c1.065 0 1.88.284 2.449.852.48.48.72 1.128.72 1.944 0 1.288-.6 2.156-1.8 2.604l2.052 3h-2.16l-1.825-2.688h-1.428V9.13H68.32zm1.849-4.32h1.871c.448 0 .796-.108 1.044-.324.248-.224.373-.52.373-.888 0-.392-.128-.688-.384-.888-.256-.208-.612-.312-1.069-.312h-1.836V4.81zm6.823 4.32V.73h6.336v1.644h-4.5v1.704h3.96v1.644h-3.96v1.764h4.56V9.13h-6.396zM137.091 5.613a.5.5 0 000-.708l-3.182-3.182a.5.5 0 10-.707.708l2.829 2.828-2.829 2.828a.5.5 0 00.707.708l3.182-3.182zm-43.181.146h42.828v-1H93.91v1z" fill="#fff"/></svg>