<svg width="18" height="23" viewBox="0 0 18 23" fill="none" xmlns="http://www.w3.org/2000/svg">
<path d="M15.4001 2.3024C13.8847 0.847621 11.7875 0.0463867 9.49495 0.0463867C5.99292 0.0463867 3.83901 1.48192 2.64881 2.68612C1.18196 4.17015 0.34082 6.14064 0.34082 8.09246C0.34082 10.5431 1.36587 12.4241 3.08244 13.1238C3.19769 13.171 3.31364 13.1948 3.42732 13.1948C3.78945 13.1948 4.07639 12.9579 4.1758 12.5778C4.23374 12.3597 4.36801 11.8218 4.42638 11.5882C4.55135 11.1271 4.45038 10.9052 4.17786 10.5841C3.68138 9.99664 3.45018 9.30198 3.45018 8.39793C3.45018 5.71262 5.44972 2.85866 9.15568 2.85866C12.0962 2.85866 13.9228 4.52994 13.9228 7.22022C13.9228 8.91791 13.5571 10.4901 12.893 11.6475C12.4314 12.4516 11.6198 13.4102 10.3739 13.4102C9.83507 13.4102 9.35109 13.1889 9.04569 12.803C8.75719 12.4383 8.66211 11.9671 8.77814 11.476C8.90922 10.9211 9.08794 10.3424 9.26091 9.78284C9.57639 8.76091 9.87462 7.79573 9.87462 7.02566C9.87462 5.7085 9.06486 4.82348 7.85981 4.82348C6.32835 4.82348 5.12856 6.37894 5.12856 8.36463C5.12856 9.33848 5.38738 10.0669 5.50454 10.3466C5.31161 11.164 4.165 16.0237 3.94751 16.9401C3.82176 17.4751 3.06419 21.7003 4.31809 22.0372C5.72693 22.4158 6.98622 18.3007 7.11439 17.8357C7.21827 17.4575 7.58175 16.0275 7.8045 15.1484C8.4846 15.8035 9.57966 16.2464 10.6452 16.2464C12.6539 16.2464 14.4603 15.3425 15.7319 13.7013C16.965 12.1095 17.6442 9.89084 17.6442 7.45433C17.6442 5.54951 16.8262 3.67168 15.4001 2.3024Z" fill="white"/>
</svg>
