<svg width="202" height="17" viewBox="0 0 202 17" fill="none" xmlns="http://www.w3.org/2000/svg">
<path d="M7.08383 15.0529C4.79049 15.0529 2.81049 14.3062 1.14383 12.8129L2.96383 10.6329C4.33716 11.7662 5.7305 12.3329 7.14383 12.3329C7.7705 12.3329 8.26383 12.2129 8.62383 11.9729C8.98383 11.7329 9.16383 11.3995 9.16383 10.9729C9.16383 10.5729 8.97716 10.2529 8.60383 10.0129C8.2305 9.75954 7.47716 9.48621 6.34383 9.19287C5.54383 8.99287 4.89716 8.79954 4.40383 8.61287C3.91049 8.41287 3.43716 8.15287 2.98383 7.83287C2.54383 7.51287 2.21716 7.11287 2.00383 6.63287C1.80383 6.13954 1.70383 5.55287 1.70383 4.87287C1.70383 3.60621 2.15716 2.58621 3.06383 1.81287C3.98383 1.03954 5.16383 0.652874 6.60383 0.652874C8.5905 0.652874 10.3238 1.24621 11.8038 2.43287L10.2038 4.75287C8.88383 3.83287 7.6705 3.37287 6.56383 3.37287C5.99049 3.37287 5.54383 3.49287 5.22383 3.73287C4.91716 3.95954 4.76383 4.25954 4.76383 4.63287C4.76383 5.08621 4.95716 5.42621 5.34383 5.65287C5.73049 5.87954 6.54383 6.15287 7.78383 6.47287C9.30383 6.87287 10.4238 7.38621 11.1438 8.01287C11.8638 8.63954 12.2238 9.53954 12.2238 10.7129C12.2238 12.0729 11.7505 13.1395 10.8038 13.9129C9.8705 14.6729 8.6305 15.0529 7.08383 15.0529ZM14.8968 14.8529V0.852874H17.9768V6.39287H23.6568V0.852874H26.7368V14.8529H23.6568V9.23287H17.9768V14.8529H14.8968ZM42.2121 12.9929C40.7988 14.3929 39.0254 15.0929 36.8921 15.0929C34.7588 15.0929 32.9854 14.3929 31.5721 12.9929C30.1721 11.5929 29.4721 9.87954 29.4721 7.85287C29.4721 5.83954 30.1788 4.13287 31.5921 2.73287C33.0188 1.31954 34.7988 0.612875 36.9321 0.612875C39.0654 0.612875 40.8321 1.31287 42.2321 2.71287C43.6454 4.11287 44.3521 5.82621 44.3521 7.85287C44.3521 9.86621 43.6388 11.5795 42.2121 12.9929ZM33.8921 10.9729C34.6921 11.8262 35.7054 12.2529 36.9321 12.2529C38.1588 12.2529 39.1654 11.8329 39.9521 10.9929C40.7388 10.1395 41.1321 9.09287 41.1321 7.85287C41.1321 6.62621 40.7321 5.58621 39.9321 4.73287C39.1321 3.87954 38.1188 3.45287 36.8921 3.45287C35.6654 3.45287 34.6588 3.87954 33.8721 4.73287C33.0854 5.57287 32.6921 6.61287 32.6921 7.85287C32.6921 9.07954 33.0921 10.1195 33.8921 10.9729ZM47.0843 14.8529V0.852874H52.8043C54.4576 0.852874 55.7643 1.29954 56.7243 2.19287C57.6843 3.08621 58.1643 4.26621 58.1643 5.73287C58.1643 7.29287 57.631 8.50621 56.5643 9.37287C55.4976 10.2262 54.1443 10.6529 52.5043 10.6529H50.1643V14.8529H47.0843ZM50.1643 7.91287H52.6043C53.3643 7.91287 53.9576 7.71287 54.3843 7.31287C54.8243 6.91287 55.0443 6.39287 55.0443 5.75287C55.0443 5.07287 54.8243 4.55287 54.3843 4.19287C53.9443 3.81954 53.331 3.63287 52.5443 3.63287H50.1643V7.91287ZM66.4398 14.8529V0.852874H69.2798L75.8398 9.47287V0.852874H78.8798V14.8529H76.2598L69.4798 5.95287V14.8529H66.4398ZM94.3605 12.9929C92.9472 14.3929 91.1739 15.0929 89.0405 15.0929C86.9072 15.0929 85.1339 14.3929 83.7205 12.9929C82.3205 11.5929 81.6205 9.87954 81.6205 7.85287C81.6205 5.83954 82.3272 4.13287 83.7405 2.73287C85.1672 1.31954 86.9472 0.612875 89.0805 0.612875C91.2139 0.612875 92.9805 1.31287 94.3805 2.71287C95.7939 4.11287 96.5005 5.82621 96.5005 7.85287C96.5005 9.86621 95.7872 11.5795 94.3605 12.9929ZM86.0405 10.9729C86.8405 11.8262 87.8539 12.2529 89.0805 12.2529C90.3072 12.2529 91.3139 11.8329 92.1005 10.9929C92.8872 10.1395 93.2805 9.09287 93.2805 7.85287C93.2805 6.62621 92.8805 5.58621 92.0805 4.73287C91.2805 3.87954 90.2672 3.45287 89.0405 3.45287C87.8139 3.45287 86.8072 3.87954 86.0205 4.73287C85.2339 5.57287 84.8405 6.61287 84.8405 7.85287C84.8405 9.07954 85.2405 10.1195 86.0405 10.9729ZM102.132 14.9529L97.352 0.852874H100.652L103.552 10.3329L106.692 0.812874H109.332L112.472 10.3329L115.372 0.852874H118.592L113.812 14.9529H111.132L107.972 5.79287L104.812 14.9529H102.132Z" fill="white"/>
<path d="M201.131 9.38161C201.521 8.99108 201.521 8.35792 201.131 7.96739L194.767 1.60343C194.376 1.21291 193.743 1.21291 193.353 1.60343C192.962 1.99396 192.962 2.62712 193.353 3.01765L199.01 8.6745L193.353 14.3314C192.962 14.7219 192.962 15.355 193.353 15.7456C193.743 16.1361 194.376 16.1361 194.767 15.7456L201.131 9.38161ZM129.701 9.6745H200.424V7.6745H129.701V9.6745Z" fill="white"/>
</svg>
