<svg width="123" height="13" fill="none" xmlns="http://www.w3.org/2000/svg"><path d="M4.575 9.858c-1.376 0-2.564-.448-3.564-1.344l1.092-1.308c.824.68 1.66 1.02 2.508 1.02.376 0 .672-.072.888-.216a.683.683 0 00.324-.6c0-.24-.112-.432-.336-.576-.224-.152-.676-.316-1.356-.492a10.8 10.8 0 01-1.164-.348 4.232 4.232 0 01-.852-.468 1.766 1.766 0 01-.588-.72c-.12-.296-.18-.648-.18-1.056 0-.76.272-1.372.816-1.836.552-.464 1.26-.696 2.124-.696 1.192 0 2.232.356 3.12 1.068l-.96 1.392c-.792-.552-1.52-.828-2.184-.828-.344 0-.612.072-.804.216a.64.64 0 00-.276.54c0 .272.116.476.348.612.232.136.72.3 1.464.492.912.24 1.584.548 2.016.924.432.376.648.916.648 1.62 0 .816-.284 1.456-.852 1.92-.56.456-1.304.684-2.232.684zm4.688-.12v-8.4h1.848v3.324h3.408V1.338h1.848v8.4h-1.848V6.366H11.11v3.372H9.263zm16.39-1.116c-.849.84-1.913 1.26-3.193 1.26s-2.344-.42-3.192-1.26c-.84-.84-1.26-1.868-1.26-3.084 0-1.208.424-2.232 1.272-3.072.856-.848 1.924-1.272 3.204-1.272 1.28 0 2.34.42 3.18 1.26.848.84 1.272 1.868 1.272 3.084 0 1.208-.428 2.236-1.284 3.084zM20.66 7.41c.48.512 1.088.768 1.824.768s1.34-.252 1.812-.756c.472-.512.708-1.14.708-1.884 0-.736-.24-1.36-.72-1.872s-1.088-.768-1.824-.768-1.34.256-1.812.768c-.472.504-.708 1.128-.708 1.872 0 .736.24 1.36.72 1.872zm7.915 2.328v-8.4h3.432c.992 0 1.776.268 2.352.804.576.536.864 1.244.864 2.124 0 .936-.32 1.664-.96 2.184-.64.512-1.452.768-2.436.768h-1.404v2.52h-1.848zm1.848-4.164h1.464c.456 0 .812-.12 1.068-.36.264-.24.396-.552.396-.936 0-.408-.132-.72-.396-.936-.264-.224-.632-.336-1.104-.336h-1.428v2.568zm9.766 4.164v-8.4h1.704l3.936 5.172V1.338h1.824v8.4H46.08l-4.068-5.34v5.34h-1.824zM56.94 8.622c-.848.84-1.912 1.26-3.192 1.26-1.28 0-2.344-.42-3.192-1.26-.84-.84-1.26-1.868-1.26-3.084 0-1.208.424-2.232 1.272-3.072.856-.848 1.924-1.272 3.204-1.272 1.28 0 2.34.42 3.18 1.26.848.84 1.272 1.868 1.272 3.084 0 1.208-.428 2.236-1.284 3.084zM51.95 7.41c.48.512 1.088.768 1.824.768s1.34-.252 1.812-.756c.472-.512.708-1.14.708-1.884 0-.736-.24-1.36-.72-1.872s-1.088-.768-1.824-.768-1.34.256-1.812.768c-.472.504-.708 1.128-.708 1.872 0 .736.24 1.36.72 1.872zm9.655 2.388l-2.868-8.46h1.98l1.74 5.688 1.884-5.712h1.584l1.884 5.712 1.74-5.688h1.932l-2.868 8.46h-1.608l-1.896-5.496-1.896 5.496h-1.608zM122.047 6.217a.5.5 0 000-.708l-3.182-3.182a.5.5 0 10-.707.708l2.828 2.828-2.828 2.828a.5.5 0 00.707.708l3.182-3.182zm-43.181.146h42.827v-1H78.866v1z" fill="#fff"/></svg>