<svg width="23" height="18" viewBox="0 0 23 18" fill="none" xmlns="http://www.w3.org/2000/svg">
<path d="M22.8143 2.22862C22.004 2.58766 21.1346 2.83117 20.2211 2.93988C21.1538 2.38132 21.8678 1.49538 22.2062 0.442953C21.3313 0.960209 20.3655 1.3358 19.3365 1.53941C18.5124 0.660338 17.3403 0.112793 16.0402 0.112793C13.5461 0.112793 11.5238 2.13509 11.5238 4.62787C11.5238 4.98142 11.5637 5.32672 11.6407 5.65692C7.88782 5.46842 4.55999 3.67038 2.33272 0.938194C1.94338 1.60405 1.7219 2.37992 1.7219 3.20813C1.7219 4.77508 2.51981 6.15766 3.73045 6.96655C2.99031 6.9418 2.29419 6.7382 1.68477 6.39976V6.45617C1.68477 8.64354 3.24208 10.4691 5.307 10.8846C4.92868 10.9864 4.52974 11.0428 4.11702 11.0428C3.82538 11.0428 3.54335 11.0139 3.26683 10.9589C3.84186 12.7542 5.50924 14.0597 7.48478 14.0955C5.93984 15.3061 3.99183 16.0256 1.876 16.0256C1.51145 16.0256 1.15237 16.0036 0.798828 15.9637C2.79774 17.2473 5.17085 17.9957 7.72141 17.9957C16.0293 17.9957 20.5705 11.1143 20.5705 5.14653L20.5554 4.56186C21.4427 3.92899 22.2103 3.13384 22.8143 2.22862Z" fill="white"/>
</svg>
