<svg width="18" height="19" fill="none" xmlns="http://www.w3.org/2000/svg"><g clip-path="url(#clip0)"><path d="M18 4.004a7.373 7.373 0 01-2.12.582 3.708 3.708 0 001.623-2.042 7.445 7.445 0 01-2.346.897 3.693 3.693 0 00-6.292 3.366 10.483 10.483 0 01-7.61-3.858 3.665 3.665 0 00-.5 1.856 3.69 3.69 0 001.642 3.073 3.693 3.693 0 01-1.672-.464v.047a3.696 3.696 0 002.961 3.62c-.31.084-.635.13-.973.13-.238 0-.469-.024-.695-.069a3.694 3.694 0 003.449 2.565A7.409 7.409 0 01.88 15.284c-.298 0-.592-.018-.88-.051a10.438 10.438 0 005.66 1.661c6.792 0 10.505-5.626 10.505-10.505l-.013-.478A7.373 7.373 0 0018 4.004z" fill="#fff"/></g><defs><clipPath id="clip0"><path fill="#fff" transform="matrix(1 0 0 -1 0 18.585)" d="M0 0h18v18H0z"/></clipPath></defs></svg>